<svg width="45" height="11" viewBox="0 0 45 11" fill="none" xmlns="http://www.w3.org/2000/svg">
<path d="M5.33389 7.34159H2.64011V10.0032H0V0.2146H5.33389C7.54472 0.2146 8.69306 1.91028 8.69306 3.77768C8.69306 5.64508 7.54472 7.34159 5.33389 7.34159ZM4.71142 5.17286C5.51634 5.17286 6.05295 4.61479 6.05295 3.77768C6.05295 2.94057 5.51634 2.3825 4.71142 2.3825H2.64011V5.17286H4.71142Z" fill="#FF6D00"/>
<path d="M12.4707 7.34159V10.0032H9.83057V0.2146H15.1645C17.3753 0.2146 18.5236 1.91028 18.5236 3.77768C18.5236 4.99042 18.0407 6.13876 17.0962 6.78269L18.6953 10.0023H15.9801L14.6278 7.34076H12.4707V7.34159ZM14.542 5.17286C15.3469 5.17286 15.8835 4.61479 15.8835 3.77768C15.8835 2.94057 15.3469 2.3825 14.542 2.3825H12.4707V5.17286H14.542Z" fill="#FF6D00"/>
<path d="M19.6184 10.0032V0.2146H22.2585V10.0023H19.6184V10.0032Z" fill="#FF6D00"/>
<path d="M23.8254 2.64012C23.8254 1.05175 24.5767 0 26.0363 0C27.2275 0 28.2256 0.719057 28.4725 1.99619L29.492 7.38373H29.5993L30.6189 1.99619C30.8657 0.719057 31.8638 0 33.0551 0C34.5147 0 35.2659 1.05175 35.2659 2.64012V10.0131H32.8405V2.84403H32.7546L31.7351 8.23158C31.4882 9.50871 30.737 10.2278 29.5457 10.2278C28.3544 10.2278 27.6032 9.50871 27.3563 8.23158L26.3368 2.84403H26.2509V10.0131H23.8254V2.64012Z" fill="#FF6D00"/>
<path d="M40.1168 7.79249H44.9999V10.0033H39.1938C37.7772 10.0033 36.8328 9.05888 36.8328 7.64224V0.215576H44.9999V2.4264H39.4729V3.91818H44.8926V6.08607H39.4729V7.14856C39.4729 7.53492 39.7304 7.79249 40.1168 7.79249Z" fill="#FF6D00"/>
</svg>
