<svg width="55" height="16" viewBox="0 0 55 16" fill="none" xmlns="http://www.w3.org/2000/svg">
<path d="M0.585938 0.859375H12.4805V3.57422H8.18359V15H4.88281V3.57422H0.585938V0.859375ZM13.5406 0.859375H23.3258V3.57422H16.8609V6.5625H22.818V9.27734H16.8609V12.2852H23.3453V15H13.5406V0.859375ZM28.9758 0.859375L32.6281 9.76562H32.7844L36.4367 0.859375H40.5578V15H37.3156V6.21094H37.1984L33.7609 14.9219H31.6516L28.2141 6.17188H28.0969V15H24.8547V0.859375H28.9758ZM54.0203 0.859375V9.98047C54.0203 11.0221 53.7697 11.9368 53.2684 12.7246C52.7736 13.5124 52.077 14.1211 51.1785 14.5508C50.2801 14.9805 49.2417 15.1953 48.0633 15.1953C46.8784 15.1953 45.8367 14.9805 44.9383 14.5508C44.0398 14.1211 43.3432 13.5124 42.8484 12.7246C42.3536 11.9368 42.1063 11.0221 42.1063 9.98047V0.859375H45.4266V9.70703C45.4266 10.2018 45.5372 10.6445 45.7586 11.0352C45.9799 11.4258 46.2892 11.7318 46.6863 11.9531C47.09 12.1745 47.549 12.2852 48.0633 12.2852C48.5776 12.2852 49.0333 12.1745 49.4305 11.9531C49.8276 11.7318 50.1336 11.4258 50.3484 11.0352C50.5698 10.6445 50.6805 10.2018 50.6805 9.70703V0.859375H54.0203Z" fill="#FF6D00"/>
</svg>
